<?xml version="1.0" encoding="UTF-8" standalone="no"?>
<!-- Created with Inkscape (http://www.inkscape.org/) -->

<svg
   xmlns:dc="http://purl.org/dc/elements/1.1/"
   xmlns:cc="http://creativecommons.org/ns#"
   xmlns:rdf="http://www.w3.org/1999/02/22-rdf-syntax-ns#"
   xmlns:svg="http://www.w3.org/2000/svg"
   xmlns="http://www.w3.org/2000/svg"
   xmlns:xlink="http://www.w3.org/1999/xlink"
   xmlns:sodipodi="http://sodipodi.sourceforge.net/DTD/sodipodi-0.dtd"
   xmlns:inkscape="http://www.inkscape.org/namespaces/inkscape"
   width="500"
   height="500"
   viewBox="0 0 132.29166 132.29167"
   version="1.1"
   id="svg8"
   inkscape:version="0.92.2 (5c3e80d, 2017-08-06)"
   sodipodi:docname="Store Icon.svg">
  <sodipodi:namedview
     id="base"
     pagecolor="#ffffff"
     bordercolor="#666666"
     borderopacity="1.0"
     inkscape:pageopacity="0.0"
     inkscape:pageshadow="2"
     inkscape:zoom="1.4142136"
     inkscape:cx="355.95276"
     inkscape:cy="197.96888"
     inkscape:document-units="mm"
     inkscape:current-layer="layer8"
     showgrid="false"
     units="px"
     inkscape:window-width="3200"
     inkscape:window-height="1644"
     inkscape:window-x="-16"
     inkscape:window-y="-16"
     inkscape:window-maximized="1"
     inkscape:pagecheckerboard="true" />
  <defs
     id="defs2">
    <linearGradient
       id="linearGradient4725"
       inkscape:collect="always">
      <stop
         id="stop4721"
         offset="0"
         style="stop-color:#ffffff;stop-opacity:0.27" />
      <stop
         style="stop-color:#000000;stop-opacity:0.1"
         offset="0.84056121"
         id="stop4729" />
      <stop
         id="stop4723"
         offset="1"
         style="stop-color:#ffffff;stop-opacity:0.28" />
    </linearGradient>
    <linearGradient
       gradientTransform="translate(-66.14583,27.398505)"
       gradientUnits="userSpaceOnUse"
       y2="66.145828"
       x2="119.0625"
       y1="66.145828"
       x1="13.229168"
       id="linearGradient4727"
       xlink:href="#linearGradient4725"
       inkscape:collect="always" />
    <clipPath
       clipPathUnits="userSpaceOnUse"
       id="clipPath6448">
      <circle
         r="200"
         cy="249.99998"
         cx="250.00002"
         id="circle6450"
         style="display:inline;fill:#55b900;fill-opacity:1;stroke-width:2.17615151" />
    </clipPath>
  </defs>
  <metadata
     id="metadata5">
    <rdf:RDF>
      <cc:Work
         rdf:about="">
        <dc:format>image/svg+xml</dc:format>
        <dc:type
           rdf:resource="http://purl.org/dc/dcmitype/StillImage" />
        <dc:title></dc:title>
      </cc:Work>
    </rdf:RDF>
  </metadata>
  <g
     style="display:inline"
     transform="translate(0,-164.70832)"
     id="layer1"
     inkscape:groupmode="layer"
     inkscape:label="Base">
    <rect
       y="230.85416"
       x="66.145836"
       height="52.916668"
       width="52.916668"
       id="rect10"
       style="fill:#3ba300;fill-opacity:1;stroke-width:0.26458332"
       transform="translate(0,1.2291667e-6)" />
  </g>
  <g
     style="display:inline"
     inkscape:label="Circle"
     id="layer2"
     inkscape:groupmode="layer">
    <circle
       transform="translate(0,-164.70832)"
       r="52.916668"
       cy="230.85416"
       cx="66.145836"
       id="path4506"
       style="fill:#55b900;fill-opacity:1;stroke-width:0.57577342" />
  </g>
  <g
     style="display:inline"
     inkscape:label="Overlay"
     id="layer6"
     inkscape:groupmode="layer">
    <circle
       transform="rotate(-45)"
       r="52.916668"
       cy="93.544334"
       cx="5.3947965e-006"
       id="path4506-2"
       style="display:inline;fill:url(#linearGradient4727);fill-opacity:1;stroke:none;stroke-width:0.57577342;stroke-opacity:1" />
  </g>
  <g
     style="display:inline"
     inkscape:label="Highlight"
     id="layer3"
     inkscape:groupmode="layer">
    <path
       style="opacity:1;fill:#99d566;fill-opacity:1;stroke:none;stroke-width:33.9732666;stroke-miterlimit:4;stroke-dasharray:none"
       mask="none"
       clip-path="none"
       d="M 250,50 A 200.00001,200.00001 0 0 0 50,250 200.00001,200.00001 0 0 0 50.125,253.51172 200.00001,199.99998 0 0 1 250,56 200.00001,199.99998 0 0 1 449.875,252.48828 200.00001,200.00001 0 0 0 450,250 200.00001,200.00001 0 0 0 250,50 Z"
       transform="scale(0.26458333)"
       id="path6452"
       inkscape:connector-curvature="0" />
    <path
       style="display:inline;opacity:0;fill:#99d566;fill-opacity:1;stroke:none;stroke-width:8.98875999;stroke-miterlimit:4;stroke-dasharray:none"
       mask="none"
       clip-path="none"
       d="M 119.0625,66.145828 A 52.916668,52.916668 0 0 1 66.145836,119.0625 52.916668,52.916668 0 0 1 13.229168,66.145828 52.916668,52.916668 0 0 1 66.145836,13.22916 52.916668,52.916668 0 0 1 119.0625,66.145828 Z"
       id="path6452-8"
       inkscape:connector-curvature="0" />
  </g>
  <g
     style="display:inline"
     inkscape:label="Shadow"
     id="layer5"
     inkscape:groupmode="layer">
    <path
       style="opacity:1;fill:#55b900;fill-opacity:1;stroke-width:2.17700768;stroke-miterlimit:4;stroke-dasharray:none"
       d="m 180,196 c -3.27907,0 -6.17071,1.57003 -7.99219,3.99414 -0.75019,0.56385 -1.41614,1.2287 -1.98047,1.97852 -0.7468,0.56205 -1.41024,1.22418 -1.97265,1.9707 -0.74117,0.55895 -1.40167,1.21611 -1.96094,1.95703 -0.73645,0.55589 -1.39047,1.21154 -1.94727,1.94727 -0.73483,0.55499 -1.38747,1.20924 -1.94336,1.94336 -0.72891,0.55169 -1.37713,1.1995 -1.92968,1.92773 -0.72587,0.54995 -1.37104,1.19673 -1.92188,1.92187 -0.72136,0.54759 -1.36583,1.18932 -1.91406,1.91016 -0.71807,0.54613 -1.35808,1.18629 -1.9043,1.9043 -0.71082,0.54185 -1.34457,1.17418 -1.88672,1.88476 -0.7096,0.54084 -1.34124,1.1738 -1.88281,1.88282 -0.70582,0.53912 -1.33771,1.16731 -1.87695,1.87304 -0.69889,0.53509 -1.32215,1.15869 -1.85742,1.85742 -0.69729,0.53417 -1.32112,1.15639 -1.85547,1.85352 -0.69103,0.53049 -1.30909,1.14707 -1.83985,1.83789 -0.68823,0.52877 -1.30286,1.14412 -1.83203,1.83203 -0.68356,0.52607 -1.29582,1.13705 -1.82226,1.82032 -0.67956,0.52357 -1.28835,1.13145 -1.8125,1.81054 -0.6754,0.52105 -1.27904,1.12595 -1.80078,1.80078 -0.67181,0.51887 -1.27331,1.11986 -1.79297,1.79102 -0.66701,0.5159 -1.26438,1.11309 -1.78125,1.7793 -0.66426,0.51432 -1.26016,1.10992 -1.77539,1.77343 -0.65939,0.5117 -1.25142,1.10475 -1.76368,1.76367 -0.65541,0.50953 -1.24407,1.09678 -1.7539,1.75196 -0.6497,0.50581 -1.23177,1.08916 -1.73828,1.73828 -0.64851,0.50501 -1.23246,1.08654 -1.73828,1.73437 -0.64293,0.502 -1.2203,1.08004 -1.72266,1.72266 -0.63903,0.49955 -1.21284,1.07426 -1.71289,1.71289 -0.63463,0.49692 -1.20575,1.06692 -1.70313,1.70117 -0.63037,0.49427 -1.20049,1.06149 -1.69531,1.69141 -0.62689,0.49219 -1.19091,1.0571 -1.68359,1.68359 -0.62258,0.48961 -1.1838,1.04966 -1.67383,1.67188 -0.61888,0.4874 -1.17631,1.04547 -1.66406,1.66406 -0.61449,0.48476 -1.16927,1.03809 -1.6543,1.65234 -0.61046,0.48228 -1.16198,1.03235 -1.64453,1.64258 -0.60643,0.47979 -1.15471,1.02661 -1.63477,1.63281 -0.60241,0.4773 -1.14743,1.02086 -1.625,1.62305 -0.59815,0.47461 -1.13835,1.0154 -1.61328,1.61328 -0.59425,0.47207 -1.13099,1.00966 -1.60351,1.60352 -0.59138,0.47055 -1.12897,1.0044 -1.59961,1.5957 -0.58462,0.46626 -1.11367,0.99559 -1.580081,1.58008 -0.582023,0.46442 -1.111334,0.99254 -1.576171,1.57422 -0.577946,0.46186 -1.102197,0.98489 -1.564454,1.5625 -0.57507,0.46022 -1.098216,0.9817 -1.558593,1.55664 -0.569074,0.45635 -1.086387,0.97214 -1.542969,1.54101 -0.566082,0.45434 -1.078498,0.96939 -1.533203,1.53516 -0.562488,0.45207 -1.074946,0.96123 -1.527344,1.52344 -0.557732,0.44903 -1.064332,0.9562 -1.513672,1.51367 -0.554239,0.44672 -1.058749,0.95 -1.505859,1.50391 -0.550273,0.44416 -1.051545,0.94419 -1.496094,1.49414 -0.54631,0.4416 -1.044347,0.93839 -1.486328,1.48437 -0.542075,0.43881 -1.035367,0.93291 -1.47461,1.47461 -0.538562,0.43646 -1.029827,0.92672 -1.466796,1.46485 -0.53385,0.43348 -1.023173,0.92154 -1.457032,1.45507 -0.530248,0.43119 -1.013834,0.91531 -1.445312,1.44532 -0.52637,0.42852 -1.00854,0.9076 -1.4375,1.43359 -0.520959,0.42485 -0.99646,0.9014 -1.421875,1.42187 -0.519915,0.42411 -0.995181,0.90056 -1.419922,1.41993 -0.514335,0.42062 -0.985273,0.89026 -1.40625,1.40429 -0.510398,0.41801 -0.978128,0.88444 -1.396484,1.39454 -0.505088,0.41424 -0.969901,0.87825 -1.384766,1.38281 -0.503852,0.41346 -0.966836,0.87553 -1.380859,1.3789 -0.498644,0.41014 -0.956708,0.86689 -1.367188,1.36524 -0.494765,0.40753 -0.949558,0.86294 -1.357422,1.35742 -0.487336,0.40208 -0.934945,0.84934 -1.33789,1.33594 0,0 -0.002,0.002 -0.002,0.002 -0.489249,0.40343 -0.937567,0.85519 -1.341796,1.34375 -0.488566,0.40423 -0.940317,0.85255 -1.34375,1.3418 -0.472457,0.39322 -0.90833,0.82766 -1.300782,1.30078 -0.475248,0.39421 -0.912038,0.83173 -1.30664,1.30664 -0.474931,0.39461 -0.914367,0.83138 -1.308594,1.30664 -0.462729,0.38611 -0.889536,0.81244 -1.275391,1.27539 -0.467693,0.38959 -0.899794,0.8211 -1.289062,1.28906 -0.455458,0.38111 -0.877012,0.80014 -1.257813,1.25586 -0.455353,0.38049 -0.874996,0.80083 -1.255859,1.25586 -0.45554,0.38107 -0.87693,0.80212 -1.257813,1.25781 -0.440594,0.37022 -0.850181,0.77842 -1.220703,1.21875 -0.444481,0.37204 -0.853088,0.78529 -1.226562,1.22852 -0.440695,0.36938 -0.847939,0.77735 -1.21875,1.2168 -0.437244,0.367 -0.84062,0.77293 -1.208985,1.20898 -0.435856,0.36646 -0.839748,0.76995 -1.207031,1.20508 -0.43232,0.36491 -0.83271,0.76659 -1.197265,1.19922 -0.420966,0.35682 -0.811487,0.7467 -1.167969,1.16797 -0.420899,0.35617 -0.811394,0.74547 -1.167969,1.16601 -0.418282,0.35445 -0.807439,0.74403 -1.162109,1.16211 -0.412157,0.35005 -0.794258,0.73257 -1.144531,1.14453 -0.410779,0.34906 -0.793297,0.732 -1.142579,1.14258 -0.404988,0.34493 -0.78186,0.72016 -1.126953,1.125 -0.398501,0.33969 -0.768869,0.70964 -1.109375,1.10742 -0.403429,0.34332 -0.777022,0.72029 -1.121093,1.12305 -0.39373,0.33675 -0.760744,0.70212 -1.097657,1.0957 -0.390787,0.33452 -0.753108,0.69929 -1.08789,1.08985 -0.38706,0.33178 -0.748026,0.6913 -1.080079,1.07812 -0.383298,0.32903 -0.741023,0.6853 -1.070312,1.06836 -0.379574,0.32629 -0.732049,0.6812 -1.058594,1.06055 -0.372004,0.32022 -0.719976,0.66583 -1.041015,1.03711 -0.375805,0.32305 -0.724975,0.67569 -1.048829,1.05078 -0.371604,0.32084 -0.720461,0.6672 -1.041015,1.03906 -0.356555,0.30917 -0.688639,0.64366 -0.998047,1 -0.365376,0.3154 -0.707353,0.65672 -1.023438,1.02149 -0.352262,0.30561 -0.682038,0.63462 -0.988281,0.98632 -0.35794,0.30985 -0.691434,0.64657 -1.001953,1.00391 -0.348361,0.30308 -0.675295,0.62833 -0.978516,0.97656 -0.344396,0.29988 -0.66654,0.62274 -0.966796,0.9668 -0.344203,0.29985 -0.666711,0.62475 -0.966797,0.96875 -0.336954,0.29446 -0.652713,0.61039 -0.947266,0.94727 -0.334429,0.29241 -0.648759,0.60523 -0.941406,0.93945 -0.330727,0.28958 -0.641826,0.59916 -0.931641,0.92969 -0.327061,0.28678 -0.632921,0.59501 -0.919922,0.92187 -0.32202,0.28275 -0.625056,0.58459 -0.908203,0.90625 -0.321428,0.28244 -0.625539,0.58502 -0.908203,0.90625 -0.314524,0.27725 -0.609425,0.57419 -0.886719,0.88867 -0.308602,0.27211 -0.600264,0.56115 -0.873047,0.86914 -0.313755,0.27627 -0.608,0.57342 -0.884765,0.88672 -0.299399,0.2651 -0.582108,0.54672 -0.8476564,0.8457 -0.3064738,0.27061 -0.594141,0.56116 -0.8652344,0.86719 -0.2942095,0.26123 -0.572554,0.53801 -0.8339843,0.83203 -0.2989265,0.26517 -0.5825529,0.54672 -0.8476563,0.84571 -0.2860326,0.2551 -0.5556384,0.52628 -0.8105468,0.8125 -0.2862126,0.25491 -0.5573944,0.52451 -0.8125,0.81054 -0.2825983,0.25205 -0.5485476,0.52031 -0.8007813,0.80274 -0.2789915,0.24917 -0.5436081,0.5122 -0.7929687,0.79101 -0.275353,0.24627 -0.5367497,0.50607 -0.7832032,0.78125 -0.2717512,0.24339 -0.5279171,0.50186 -0.7714844,0.77344 -0.268157,0.2405 -0.5229921,0.49373 -0.7636718,0.76172 -0.2628357,0.23605 -0.5116351,0.48554 -0.7480469,0.74805 -0.26568204,0.23871 -0.51915729,0.49012 -0.7578125,0.75586 -0.24949082,0.22538 -0.48538847,0.46355 -0.7109375,0.71289 -0.2587328,0.23268 -0.5051834,0.47797 -0.7382813,0.73633 -0.2445544,0.22116 -0.4776835,0.45305 -0.6992187,0.69726 -0.2518676,0.22715 -0.4912382,0.46722 -0.71875,0.71875 -0.2404482,0.21812 -0.4693803,0.44705 -0.6875,0.6875 -0.2370402,0.21503 -0.4623823,0.441 -0.6777344,0.67773 -0.2391297,0.2169 -0.4665394,0.44657 -0.6835937,0.68555 -0.2298205,0.20935 -0.4488584,0.42838 -0.6582032,0.65821 -0.2281034,0.20778 -0.4463587,0.42438 -0.6542968,0.65234 -0.2245254,0.20481 -0.4395686,0.4182 -0.6445313,0.64258 -0.220984,0.20186 -0.4308034,0.41392 -0.6328125,0.63476 -0.2154124,0.19704 -0.4217751,0.40208 -0.6191406,0.61719 -0.2171085,0.19862 -0.4262321,0.40608 -0.625,0.62305 -0.2081616,0.19126 -0.4064277,0.39142 -0.5976562,0.59961 -0.2030905,0.18654 -0.3989457,0.37936 -0.5859376,0.58203 -0.2088444,0.19156 -0.4077733,0.39297 -0.5996092,0.60156 -0.193502,0.17858 -0.379776,0.36336 -0.558594,0.55664 -0.20181,0.18563 -0.394191,0.38047 -0.580078,0.58203 -0.18785,0.17384 -0.368996,0.35329 -0.542969,0.54102 -0.190944,0.17633 -0.374142,0.36012 -0.550781,0.55078 -0.187291,0.17352 -0.367539,0.35369 -0.541016,0.54101 -0.179365,0.16669 -0.352871,0.3382 -0.519531,0.51758 -0.178039,0.16541 -0.348144,0.3377 -0.513672,0.51563 -0.174556,0.16239 -0.343345,0.32946 -0.505859,0.5039 -0.171044,0.15935 -0.336627,0.32321 -0.496094,0.49414 -0.167568,0.15633 -0.327933,0.31887 -0.484375,0.48633 -0.160384,0.14983 -0.316612,0.30284 -0.466797,0.46289 -0.166099,0.15496 -0.325298,0.31653 -0.480469,0.48243 -0.154661,0.14516 -0.304093,0.29451 -0.449218,0.44921 -0.150995,0.14165 -0.297536,0.28677 -0.439453,0.4375 -0.154502,0.14488 -0.304221,0.29484 -0.449219,0.44922 -0.141604,0.13347 -0.278528,0.27062 -0.41211,0.41211 -0.147925,0.13909 -0.292449,0.28186 -0.43164,0.42969 -0.136687,0.12922 -0.26925,0.26171 -0.398438,0.39844 -0.133378,0.12602 -0.262425,0.2555 -0.388672,0.38867 -0.136029,0.12843 -0.267868,0.26063 -0.396484,0.39648 -0.126629,0.12009 -0.250917,0.2426 -0.371094,0.36914 -0.125731,0.1192 -0.247814,0.24163 -0.367187,0.36719 -0.121632,0.1155 -0.239797,0.234 -0.355469,0.35547 -0.119568,0.11367 -0.235807,0.23017 -0.349609,0.34961 -0.115006,0.10958 -0.228231,0.22101 -0.337891,0.33594 -0.115017,0.10974 -0.226278,0.22279 -0.335937,0.33789 -0.104551,0.10019 -0.206536,0.202 -0.306641,0.30664 -0.102291,0.0979 -0.202735,0.19671 -0.300781,0.29883 -0.107237,0.10254 -0.211882,0.20724 -0.314453,0.31445 -0.09137,0.0879 -0.181573,0.17625 -0.269532,0.26758 -0.100786,0.0966 -0.198266,0.19612 -0.294922,0.29687 -0.08727,0.0842 -0.173659,0.16853 -0.257812,0.25586 -0.08465,0.0816 -0.168279,0.16355 -0.25,0.24805 -0.08696,0.0837 -0.171988,0.16906 -0.255859,0.25586 -0.08349,0.0807 -0.165458,0.16256 -0.246094,0.24609 -0.07448,0.0722 -0.146553,0.1462 -0.21875,0.22071 -0.07385,0.0716 -0.147142,0.14299 -0.21875,0.21679 -0.06685,0.0649 -0.132253,0.13056 -0.197266,0.19727 -0.0705,0.0683 -0.140529,0.13668 -0.208984,0.20703 -0.06666,0.0649 -0.132441,0.13057 -0.197266,0.19726 -0.05707,0.0558 -0.112251,0.11282 -0.167969,0.16993 -0.05347,0.0522 -0.10787,0.10289 -0.160156,0.15625 -0.06039,0.0588 -0.118846,0.11933 -0.177734,0.17968 -0.04675,0.0459 -0.09283,0.0919 -0.138672,0.13868 -0.0471,0.0461 -0.09445,0.0916 -0.140625,0.13867 -0.0398,0.0391 -0.08,0.0774 -0.119141,0.11718 -0.04602,0.0451 -0.09158,0.0907 -0.136718,0.13672 -0.03413,0.0337 -0.06792,0.0674 -0.101563,0.10157 -0.03251,0.032 -0.06363,0.0652 -0.0957,0.0976 -0.03053,0.0301 -0.06165,0.0593 -0.0918,0.0899 -0.02624,0.0259 -0.05218,0.0519 -0.07813,0.0781 -0.0236,0.0234 -0.04694,0.0467 -0.07031,0.0703 -0.01932,0.0192 -0.03943,0.0373 -0.05859,0.0566 -0.01767,0.0175 -0.0352,0.0351 -0.05273,0.0527 -0.01308,0.013 -0.02801,0.0279 -0.04102,0.041 -0.0013,10e-4 -0.0026,0.003 -0.0039,0.004 -0.002,0.002 -0.0039,0.004 -0.0059,0.006 -0.0017,0.002 -0.0062,0.004 -0.0078,0.006 -0.01112,0.011 -0.02214,0.0221 -0.0332,0.0332 -0.0013,0.001 -0.0026,0.003 -0.0039,0.004 -0.0016,0.002 -0.0042,0.002 -0.0059,0.004 -0.218826,0.22003 -0.427387,0.4498 -0.625,0.68945 -0.0044,0.005 -0.0093,0.0103 -0.01367,0.0156 -0.0018,0.002 -0.0041,0.004 -0.0059,0.006 C -29.146958,401.36008 -30,403.57625 -30,406 v 76 c 0,5.53999 4.46,10 10,10 h 124 c 2.08046,0 4.00668,-0.63004 5.60352,-1.70898 0.26364,-0.17783 0.51885,-0.36683 0.76367,-0.56836 0.002,-0.002 0.004,-0.004 0.006,-0.006 0.005,-0.004 0.0103,-0.009 0.0156,-0.0137 0.23965,-0.19761 0.46942,-0.40617 0.68945,-0.625 0.002,-0.002 0.002,-0.004 0.004,-0.006 0.001,-10e-4 0.003,-0.003 0.004,-0.004 0.0111,-0.0111 0.0241,-0.024 0.0352,-0.0352 0.004,-0.004 0.006,-0.008 0.01,-0.0117 0.001,-10e-4 0.003,-0.003 0.004,-0.004 0,0 0.002,-0.002 0.002,-0.002 0.0131,-0.013 0.0261,-0.026 0.0391,-0.0391 0.0177,-0.0175 0.0352,-0.0351 0.0527,-0.0527 0.0193,-0.0192 0.0375,-0.0393 0.0566,-0.0586 0.0236,-0.0234 0.0469,-0.0467 0.0703,-0.0703 0.0262,-0.0259 0.0522,-0.0519 0.0781,-0.0781 0.0305,-0.0301 0.0597,-0.0613 0.0898,-0.0918 0.0325,-0.0321 0.0656,-0.0632 0.0977,-0.0957 0.0342,-0.0336 0.0679,-0.0674 0.10157,-0.10157 0.046,-0.0451 0.0916,-0.0907 0.13672,-0.13671 0.0397,-0.0392 0.0781,-0.0793 0.11718,-0.11914 0.0471,-0.0462 0.0925,-0.0935 0.13867,-0.14063 0.0468,-0.0458 0.0928,-0.0919 0.13868,-0.13867 0.0603,-0.0589 0.12084,-0.11734 0.17968,-0.17774 0.0534,-0.0523 0.10409,-0.10668 0.15625,-0.16015 0.0571,-0.0557 0.11417,-0.1109 0.16993,-0.16797 0.0667,-0.0648 0.1324,-0.13061 0.19726,-0.19727 0.0703,-0.0685 0.13872,-0.13849 0.20703,-0.20898 0.0667,-0.065 0.1324,-0.13042 0.19727,-0.19727 0.0738,-0.0716 0.14524,-0.1449 0.21679,-0.21875 0.0745,-0.0722 0.14848,-0.14427 0.22071,-0.21875 0.0835,-0.0806 0.16541,-0.1626 0.24609,-0.24609 0.0868,-0.0839 0.17215,-0.1689 0.25586,-0.25586 0.0845,-0.0817 0.16648,-0.16535 0.24805,-0.25 0.0873,-0.0842 0.17164,-0.17054 0.25586,-0.25781 0.10075,-0.0967 0.20025,-0.19414 0.29687,-0.29492 0.0913,-0.088 0.17966,-0.17817 0.26758,-0.26954 0.10721,-0.10257 0.21191,-0.20721 0.31445,-0.31445 0.10212,-0.0981 0.20097,-0.19849 0.29883,-0.30078 0.10464,-0.1001 0.20645,-0.20209 0.30664,-0.30664 0.1151,-0.10966 0.22815,-0.22092 0.33789,-0.33594 0.11493,-0.10966 0.22636,-0.22288 0.33594,-0.33789 0.11944,-0.1138 0.23594,-0.23004 0.34961,-0.34961 0.12147,-0.11567 0.23997,-0.23384 0.35547,-0.35547 0.12556,-0.11937 0.24799,-0.24145 0.36719,-0.36718 0.12654,-0.12018 0.24905,-0.24447 0.36914,-0.3711 0.13585,-0.12861 0.26805,-0.26045 0.39648,-0.39648 0.13317,-0.12625 0.26265,-0.2553 0.38867,-0.38867 0.13673,-0.12919 0.26922,-0.26176 0.39844,-0.39844 0.14783,-0.13919 0.2906,-0.28372 0.42969,-0.43164 0.14149,-0.13358 0.27864,-0.27051 0.41211,-0.41211 0.15438,-0.145 0.30434,-0.29472 0.44922,-0.44922 0.15073,-0.14192 0.29585,-0.28846 0.4375,-0.43945 0.1547,-0.14513 0.30405,-0.29456 0.44921,-0.44922 0.1659,-0.15517 0.32747,-0.31437 0.48243,-0.48047 0.16005,-0.15019 0.31306,-0.30641 0.46289,-0.4668 0.16746,-0.15644 0.33,-0.31681 0.48633,-0.48437 0.17093,-0.15947 0.33479,-0.32505 0.49414,-0.4961 0.17444,-0.16251 0.34151,-0.3313 0.5039,-0.50586 0.17793,-0.16552 0.35022,-0.33563 0.51563,-0.51367 0.17938,-0.16666 0.35089,-0.34016 0.51758,-0.51953 0.18732,-0.17348 0.36749,-0.35372 0.54101,-0.54101 0.19066,-0.17664 0.37445,-0.35984 0.55078,-0.55079 0.18773,-0.17397 0.36718,-0.35512 0.54102,-0.54297 0.20157,-0.18588 0.3964,-0.37826 0.58203,-0.58007 0.19328,-0.17882 0.37806,-0.3651 0.55664,-0.5586 0.20859,-0.19183 0.41,-0.39076 0.60156,-0.59961 0.20267,-0.18699 0.39549,-0.38284 0.58203,-0.58593 0.20819,-0.19123 0.40835,-0.3895 0.59961,-0.59766 0.21697,-0.19877 0.42443,-0.40789 0.62305,-0.625 0.21511,-0.19737 0.42015,-0.40373 0.61719,-0.61914 0.22084,-0.20201 0.4329,-0.41183 0.63476,-0.63281 0.22438,-0.20497 0.43777,-0.42001 0.64258,-0.64453 0.22796,-0.20794 0.44456,-0.4262 0.65234,-0.6543 0.22983,-0.20935 0.44886,-0.42838 0.65821,-0.6582 0.23898,-0.21706 0.46865,-0.44447 0.68555,-0.6836 0.23674,-0.21535 0.4627,-0.44069 0.67773,-0.67773 0.24045,-0.21812 0.46938,-0.44705 0.6875,-0.6875 0.25153,-0.22751 0.4916,-0.46689 0.71875,-0.71875 0.24421,-0.22154 0.4761,-0.45467 0.69726,-0.69922 0.25836,-0.2331 0.50365,-0.47955 0.73633,-0.73828 0.24934,-0.22555 0.48751,-0.46145 0.71289,-0.71094 0.26574,-0.23865 0.51715,-0.49213 0.75586,-0.75781 0.26251,-0.23641 0.512,-0.48521 0.74805,-0.74805 0.26799,-0.24068 0.52122,-0.49551 0.76172,-0.76367 0.27158,-0.24357 0.53005,-0.49973 0.77344,-0.77149 0.27518,-0.24645 0.53498,-0.50784 0.78125,-0.7832 0.27881,-0.24936 0.54184,-0.51398 0.79101,-0.79297 0.28243,-0.25223 0.55069,-0.51818 0.80274,-0.80078 0.28603,-0.2551 0.55563,-0.52629 0.81054,-0.8125 0.28622,-0.25491 0.5574,-0.52451 0.8125,-0.81055 0.29899,-0.2651 0.58054,-0.54873 0.84571,-0.84765 0.29402,-0.26143 0.5708,-0.53978 0.83203,-0.83399 0.30603,-0.27109 0.59658,-0.55876 0.86719,-0.86523 0.29898,-0.26555 0.5806,-0.54826 0.8457,-0.84766 0.3133,-0.27676 0.61045,-0.57101 0.88672,-0.88476 0.30799,-0.27278 0.59703,-0.56445 0.86914,-0.87305 0.31448,-0.27729 0.61142,-0.57219 0.88867,-0.88672 0.32123,-0.28266 0.62381,-0.58677 0.90625,-0.9082 0.32166,-0.28315 0.6235,-0.58618 0.90625,-0.9082 0.32686,-0.28701 0.63509,-0.59287 0.92187,-0.91993 0.33053,-0.28981 0.6401,-0.60091 0.92969,-0.93164 0.33422,-0.29264 0.64704,-0.60697 0.93945,-0.9414 0.33688,-0.29456 0.65281,-0.61032 0.94727,-0.94727 0.344,-0.30008 0.6689,-0.62259 0.96875,-0.9668 0.34406,-0.30025 0.66692,-0.6224 0.9668,-0.96679 0.34823,-0.30322 0.67348,-0.63016 0.97656,-0.97852 0.35734,-0.31052 0.69406,-0.64401 1.00391,-1.00195 0.3517,-0.30624 0.68071,-0.63602 0.98632,-0.98828 0.36477,-0.31609 0.70609,-0.65806 1.02149,-1.02344 0.35634,-0.30941 0.69083,-0.64149 1,-0.99805 0.37186,-0.32055 0.71822,-0.66941 1.03906,-1.04101 0.37509,-0.32386 0.72773,-0.67303 1.05078,-1.04883 0.37128,-0.32104 0.71689,-0.66901 1.03711,-1.04102 0.37935,-0.32654 0.73426,-0.67902 1.06055,-1.05859 0.38306,-0.32929 0.73933,-0.68701 1.06836,-1.07031 0.38682,-0.33205 0.74634,-0.69302 1.07812,-1.08008 0.39056,-0.33478 0.75533,-0.6971 1.08985,-1.08789 0.39358,-0.33691 0.75895,-0.70393 1.0957,-1.09766 0.40276,-0.34407 0.77973,-0.71766 1.12305,-1.12109 0.39778,-0.34051 0.76773,-0.71088 1.10742,-1.10938 0.40484,-0.34509 0.78007,-0.72196 1.125,-1.12695 0.41058,-0.34928 0.79352,-0.7318 1.14258,-1.14258 0.41196,-0.35027 0.79448,-0.73237 1.14453,-1.14453 0.41808,-0.35467 0.80766,-0.74383 1.16211,-1.16211 0.42054,-0.35657 0.80984,-0.74707 1.16601,-1.16797 0.42127,-0.35648 0.81115,-0.747 1.16797,-1.16797 0.43263,-0.36455 0.83431,-0.76494 1.19922,-1.19726 0.43199,-0.36463 0.83293,-0.76697 1.19727,-1.19922 0.43928,-0.37026 0.84743,-0.77674 1.21679,-1.2168 0.43623,-0.36809 0.83982,-0.77198 1.20703,-1.20898 0.44727,-0.37583 0.8633,-0.78832 1.23829,-1.23633 0.44033,-0.37052 0.84853,-0.78011 1.21875,-1.2207 0.4557,-0.38089 0.87674,-0.80227 1.25781,-1.25782 0.45503,-0.38086 0.87537,-0.8005 1.25586,-1.25585 0.45572,-0.3808 0.87475,-0.80236 1.25586,-1.25782 0.46796,-0.38926 0.89947,-0.82137 1.28906,-1.28906 0.46295,-0.38586 0.88928,-0.81266 1.27539,-1.27539 0.47526,-0.39423 0.91203,-0.83366 1.30664,-1.30859 0.47491,-0.39461 0.91243,-0.8314 1.30664,-1.30664 0.47312,-0.39246 0.90756,-0.82833 1.30078,-1.30079 0.48925,-0.40343 0.93757,-0.85518 1.3418,-1.34375 0.48856,-0.40422 0.94032,-0.85254 1.34375,-1.34179 0,0 0.002,-0.002 0.002,-0.002 0.48693,-0.40322 0.9356,-0.85211 1.33789,-1.33984 0.49409,-0.40765 0.94822,-0.86104 1.35547,-1.35547 0.49835,-0.41048 0.9551,-0.86854 1.36524,-1.36719 0.50337,-0.41402 0.96544,-0.877 1.3789,-1.38086 0.50456,-0.41486 0.96857,-0.87967 1.38281,-1.38476 0.5101,-0.41836 0.97653,-0.88609 1.39454,-1.39648 0.51403,-0.42098 0.98367,-0.89192 1.40429,-1.40626 0.51937,-0.42474 0.99582,-0.9 1.41993,-1.41992 0.52048,-0.42541 0.99702,-0.90091 1.42187,-1.42187 0.526,-0.42896 1.00507,-0.91113 1.43359,-1.4375 0.53001,-0.43148 1.01413,-0.91507 1.44532,-1.44531 0.53353,-0.43386 1.02159,-0.92319 1.45507,-1.45704 0.53813,-0.43697 1.02839,-0.92823 1.46485,-1.46679 0.5417,-0.43924 1.0358,-0.93254 1.47461,-1.47461 0.54598,-0.44198 1.04277,-0.94002 1.48437,-1.48633 0.54995,-0.44455 1.04998,-0.94582 1.49414,-1.49609 0.55391,-0.44711 1.05719,-0.95162 1.50391,-1.50586 0.55747,-0.44934 1.06464,-0.95594 1.51367,-1.51368 0.56221,-0.45239 1.07137,-0.96485 1.52344,-1.52734 0.56577,-0.4547 1.08082,-0.96712 1.53516,-1.5332 0.56887,-0.45658 1.08466,-0.9739 1.54101,-1.54297 0.57494,-0.46038 1.09642,-0.98352 1.55664,-1.55859 0.57761,-0.46226 1.10064,-0.98651 1.5625,-1.56446 0.58168,-0.46483 1.1098,-0.99415 1.57422,-1.57617 0.58449,-0.46641 1.11382,-0.99546 1.58008,-1.58008 0.5913,-0.47064 1.12515,-1.00823 1.5957,-1.59961 0.59386,-0.47252 1.13145,-1.00926 1.60352,-1.60351 0.59788,-0.47493 1.13867,-1.01513 1.61328,-1.61328 0.60219,-0.47757 1.14575,-1.02259 1.62305,-1.625 0.6062,-0.48006 1.15302,-1.02834 1.63281,-1.63477 0.61023,-0.48255 1.1603,-1.03407 1.64258,-1.64453 0.61425,-0.48503 1.16758,-1.03981 1.65234,-1.6543 0.61859,-0.48774 1.17666,-1.04518 1.66406,-1.66406 0.62222,-0.49003 1.18227,-1.05125 1.67188,-1.67383 0.62649,-0.49268 1.1914,-1.0567 1.68359,-1.68359 0.62992,-0.49482 1.19714,-1.06494 1.69141,-1.69531 0.63425,-0.49738 1.20425,-1.0685 1.70117,-1.70313 0.63863,-0.50005 1.21334,-1.07386 1.71289,-1.71289 0.64262,-0.50236 1.22066,-1.07973 1.72266,-1.72266 0.64783,-0.50582 1.22936,-1.08977 1.73437,-1.73828 0.64912,-0.50651 1.23247,-1.08858 1.73828,-1.73828 0.65518,-0.50983 1.24243,-1.09849 1.75196,-1.7539 0.65892,-0.51226 1.25197,-1.10429 1.76367,-1.76368 0.66269,-0.5146 1.25564,-1.11016 1.76953,-1.77343 0.66757,-0.51748 1.26642,-1.11507 1.7832,-1.78321 0.67116,-0.51966 1.27215,-1.12116 1.79102,-1.79297 0.67483,-0.52174 1.27973,-1.12538 1.80078,-1.80078 0.67909,-0.52415 1.28697,-1.13294 1.81054,-1.8125 0.68327,-0.52644 1.29425,-1.1387 1.82032,-1.82226 0.68791,-0.52917 1.30326,-1.1438 1.83203,-1.83203 0.69082,-0.53076 1.3074,-1.14882 1.83789,-1.83985 0.69713,-0.53435 1.31935,-1.15818 1.85352,-1.85547 0.69873,-0.53527 1.32233,-1.15853 1.85742,-1.85742 0.70574,-0.53924 1.33392,-1.17113 1.87304,-1.87695 0.70902,-0.54157 1.34198,-1.17321 1.88282,-1.88281 0.71058,-0.54215 1.34291,-1.1759 1.88476,-1.88672 0.71801,-0.54622 1.35817,-1.18623 1.9043,-1.9043 0.72084,-0.54823 1.36257,-1.1927 1.91016,-1.91406 0.72514,-0.55084 1.37192,-1.19601 1.92187,-1.92188 0.72823,-0.55255 1.37604,-1.20077 1.92773,-1.92968 0.73412,-0.5559 1.38837,-1.20853 1.94336,-1.94336 0.73573,-0.5568 1.39138,-1.21082 1.94727,-1.94727 0.74092,-0.55927 1.39808,-1.21977 1.95703,-1.96094 0.74652,-0.56241 1.40865,-1.22585 1.9707,-1.97265 0.75055,-0.56488 1.41628,-1.23134 1.98047,-1.98243 C 312.43034,288.16863 314,285.27783 314,282 v -6.9043 c 0.0996,-0.11951 0.18918,-0.24692 0.2832,-0.37109 0.72735,-0.5522 1.37464,-1.19954 1.92578,-1.92773 0.73412,-0.5559 1.38837,-1.20853 1.94336,-1.94336 0.73573,-0.5568 1.39138,-1.21082 1.94727,-1.94727 0.74092,-0.55927 1.39808,-1.21977 1.95703,-1.96094 0.74652,-0.56241 1.40865,-1.22585 1.9707,-1.97265 0.75055,-0.56488 1.41628,-1.23134 1.98047,-1.98243 C 328.43034,261.16863 330,258.27783 330,255 v -20 c 0,-5.54 -4.46,-10 -10,-10 h -6 v -19 c 0,-5.54 -4.46,-10 -10,-10 z"
       transform="scale(0.26458333)"
       id="rect4631-5"
       inkscape:connector-curvature="0"
       clip-path="url(#clipPath6448)" />
  </g>
  <g
     inkscape:groupmode="layer"
     id="layer8"
     inkscape:label="Drop">
    <path
       style="display:inline;opacity:1;fill:#3ba300;fill-opacity:1;stroke-width:0.57599771;stroke-miterlimit:4;stroke-dasharray:none"
       d="m 46.566645,52.916667 c -1.46578,0 -2.645812,1.180042 -2.645812,2.645833 v 20.108334 c 0,1.465791 1.180032,2.645833 2.645812,2.645833 h 32.808079 c 1.465779,0 2.645812,-1.180042 2.645812,-2.645833 v -4.497917 h 1.587488 c 1.465778,0 2.645809,-1.180042 2.645809,-2.645833 v -5.291667 c 0,-1.465792 -1.180031,-2.645833 -2.645809,-2.645833 H 82.020536 V 55.5625 c 0,-1.465791 -1.180033,-2.645833 -2.645812,-2.645833 z"
       id="rect4631-0"
       inkscape:connector-curvature="0" />
  </g>
  <g
     style="display:inline"
     inkscape:label="Icon"
     id="layer4"
     inkscape:groupmode="layer">
    <path
       style="opacity:1;fill:#ffffff;fill-opacity:1;stroke-width:2.17700768;stroke-miterlimit:4;stroke-dasharray:none"
       d="m 180,196 c -5.54,0 -10,4.46 -10,10 v 76 c 0,5.54 4.46,10 10,10 h 124 c 5.54,0 10,-4.46 10,-10 v -17 h 6 c 5.54,0 10,-4.46 10,-10 v -20 c 0,-5.54 -4.46,-10 -10,-10 h -6 v -19 c 0,-5.54 -4.46,-10 -10,-10 z"
       transform="scale(0.26458333)"
       id="rect4631"
       inkscape:connector-curvature="0" />
  </g>
</svg>
